<?xml version="1.0" encoding="UTF-8" standalone="no" ?>
<!DOCTYPE svg PUBLIC "-//W3C//DTD SVG 1.1//EN" "http://www.w3.org/Graphics/SVG/1.1/DTD/svg11.dtd">
<svg xmlns="http://www.w3.org/2000/svg" xmlns:xlink="http://www.w3.org/1999/xlink" version="1.1" width="470.17566406249995" height="163.64000000000001" xml:space="preserve">
<desc>Created with Fabric.js 1.6.0-rc.1</desc>
<defs></defs>
<g style="stroke: none; stroke-width: 1; stroke-dasharray: none; stroke-linecap: butt; stroke-linejoin: miter; stroke-miterlimit: 10; fill: none; fill-rule: nonzero; opacity: 1;" transform="translate(10 10) scale(0.28 0.28)" >
  <circle cx="256" cy="256" r="256" style="stroke: none; stroke-width: 1; stroke-dasharray: none; stroke-linecap: butt; stroke-linejoin: miter; stroke-miterlimit: 10; fill: #2934ff; fill-rule: nonzero; opacity: 1;" transform="  matrix(1 0 0 1 0 0) "/>
  <path d="M 333.714 242.286 h -9.143 h -27.429 H 288 h -27.429 h -9.143 H 224 h -9.143 h -27.429 h -9.143 H 132.57 l 12.58 100.643 c 0.625 4.988 5.248 9.071 10.277 9.071 h 22.857 h 9.143 h 27.429 H 224 h 27.429 h 9.143 H 288 h 9.143 h 27.429 h 9.143 h 22.857 c 5.029 0 9.652 -4.083 10.277 -9.071 l 12.58 -100.643 L 333.714 242.286 L 333.714 242.286 z M 369.643 246.857 l -3.429 27.429 h -32.5 v -27.429 L 369.643 246.857 L 369.643 246.857 z M 146.929 283.429 h 31.357 v 27.429 h -27.929 L 146.929 283.429 z M 187.429 283.429 h 27.429 v 27.429 h -27.429 V 283.429 z M 224 283.429 h 27.429 v 27.429 H 224 V 283.429 z M 260.571 283.429 H 288 v 27.429 h -27.429 L 260.571 283.429 L 260.571 283.429 z M 297.143 283.429 h 27.429 v 27.429 h -27.429 V 283.429 z M 333.714 283.429 h 31.357 l -3.429 27.429 h -27.929 L 333.714 283.429 L 333.714 283.429 z M 324.571 246.857 v 27.429 h -27.429 v -27.429 L 324.571 246.857 L 324.571 246.857 z M 288 246.857 v 27.429 h -27.429 v -27.429 L 288 246.857 L 288 246.857 z M 251.429 246.857 v 27.429 H 224 v -27.429 L 251.429 246.857 L 251.429 246.857 z M 214.857 246.857 v 27.429 h -27.429 v -27.429 L 214.857 246.857 L 214.857 246.857 z M 178.286 246.857 v 27.429 h -32.5 l -3.429 -27.429 L 178.286 246.857 L 178.286 246.857 z M 155.429 342.857 c -0.42 0 -1.152 -0.647 -1.205 -1.063 L 151.5 320 h 26.786 v 22.857 H 155.429 z M 187.429 342.857 V 320 h 27.429 v 22.857 H 187.429 z M 224 342.857 V 320 h 27.429 v 22.857 H 224 z M 260.571 342.857 V 320 H 288 v 22.857 H 260.571 z M 297.143 342.857 V 320 h 27.429 v 22.857 H 297.143 z M 356.571 342.857 h -22.857 V 320 H 360.5 l -2.724 21.792 C 357.724 342.21 356.991 342.857 356.571 342.857 z" style="stroke: none; stroke-width: 1; stroke-dasharray: none; stroke-linecap: butt; stroke-linejoin: miter; stroke-miterlimit: 10; fill: #FFFFFF; fill-rule: nonzero; opacity: 1;" transform=" matrix(1 0 0 1 0 0) " stroke-linecap="round" />
  <path d="M 323.786 205.714 l 7.026 7.027 c 5.514 0.813 9.759 5.52 9.759 11.259 c 0 6.313 -5.116 11.429 -11.429 11.429 c -5.741 0 -10.446 -4.246 -11.259 -9.759 l -19.955 -19.956 h -83.857 l -19.953 19.956 c -0.814 5.513 -5.52 9.759 -11.261 9.759 c -6.313 0 -11.429 -5.116 -11.429 -11.429 c 0 -5.739 4.245 -10.446 9.759 -11.259 l 7.026 -7.027 h -51.071 h -13.714 v 36.572 h 9.143 h 45.715 h 9.143 h 27.429 H 224 h 27.429 h 9.143 H 288 h 9.143 h 27.429 h 9.143 h 45.715 h 9.143 v -36.572 h -13.714 L 323.786 205.714 L 323.786 205.714 z" style="stroke: none; stroke-width: 1; stroke-dasharray: none; stroke-linecap: butt; stroke-linejoin: miter; stroke-miterlimit: 10; fill: #f2290e; fill-rule: nonzero; opacity: 1;" transform=" matrix(1 0 0 1 0 0) " stroke-linecap="round" />
  <path d="M 335.607 217.536 c 3.571 3.571 3.571 9.359 0 12.931 c -1.786 1.783 -4.125 2.676 -6.465 2.676 c -2.339 0 -4.679 -0.891 -6.464 -2.676 l -4.795 -4.797 c 0.813 5.513 5.518 9.759 11.259 9.759 c 6.313 0 11.429 -5.116 11.429 -11.429 c 0 -5.739 -4.245 -10.446 -9.759 -11.259 L 335.607 217.536 z" style="stroke: none; stroke-width: 1; stroke-dasharray: none; stroke-linecap: butt; stroke-linejoin: miter; stroke-miterlimit: 10; fill: #FFFFFF; fill-rule: nonzero; opacity: 1;" transform=" matrix(1 0 0 1 0 0) " stroke-linecap="round" />
  <path d="M 182.857 233.143 c -2.34 0 -4.679 -0.893 -6.465 -2.679 c -3.571 -3.568 -3.571 -9.359 0 -12.928 l 4.795 -4.795 c -5.514 0.813 -9.759 5.52 -9.759 11.259 c 0 6.313 5.116 11.429 11.429 11.429 c 5.741 0 10.446 -4.246 11.261 -9.759 l -4.797 4.794 C 187.536 232.25 185.196 233.143 182.857 233.143 z" style="stroke: none; stroke-width: 1; stroke-dasharray: none; stroke-linecap: butt; stroke-linejoin: miter; stroke-miterlimit: 10; fill: #FFFFFF; fill-rule: nonzero; opacity: 1;" transform=" matrix(1 0 0 1 0 0) " stroke-linecap="round" />
  <path d="M 317.884 225.67 l 4.795 4.797 c 1.785 1.785 4.125 2.676 6.464 2.676 c 2.34 0 4.679 -0.893 6.465 -2.676 c 3.571 -3.571 3.571 -9.359 0 -12.931 l -4.795 -4.795 l -7.026 -7.027 l -43.036 -43.035 c -3.569 -3.571 -9.357 -3.571 -12.929 0 c -3.571 3.569 -3.571 9.359 0 12.929 l 30.107 30.106 L 317.884 225.67 z" style="stroke: none; stroke-width: 1; stroke-dasharray: none; stroke-linecap: butt; stroke-linejoin: miter; stroke-miterlimit: 10; fill: #242C3C; fill-rule: nonzero; opacity: 1;" transform=" matrix(1 0 0 1 0 0) " stroke-linecap="round" />
  <path d="M 176.393 217.536 c -3.571 3.568 -3.571 9.359 0 12.928 c 1.786 1.786 4.125 2.679 6.465 2.679 c 2.339 0 4.679 -0.893 6.464 -2.679 l 4.797 -4.794 l 19.953 -19.956 l 30.109 -30.106 c 3.569 -3.569 3.569 -9.359 0 -12.929 c -3.569 -3.571 -9.359 -3.571 -12.931 0 l -43.036 43.035 l -7.026 7.027 L 176.393 217.536 z" style="stroke: none; stroke-width: 1; stroke-dasharray: none; stroke-linecap: butt; stroke-linejoin: miter; stroke-miterlimit: 10; fill: #242C3C; fill-rule: nonzero; opacity: 1;" transform=" matrix(1 0 0 1 0 0) " stroke-linecap="round" />
</g>
  <g transform="translate(309.54 68.61) scale(1.51 1.51)">
   <text font-family="ADAMCG PRO" font-size="40" font-weight="normal" style="stroke: none; stroke-width: 1; stroke-dasharray: none; stroke-linecap: butt; stroke-linejoin: miter; stroke-miterlimit: 10; fill: #000000; fill-rule: nonzero; opacity: 1;" ><tspan x="-82.77" y="8.98" style="stroke: none; stroke-width: 0; stroke-dasharray: none; stroke-linecap: butt; stroke-linejoin: miter; stroke-miterlimit: 4; fill: #000000; fill-rule: ; opacity: 1;">M</tspan><tspan x="-48.67" y="8.98" style="stroke: none; stroke-width: 0; stroke-dasharray: none; stroke-linecap: butt; stroke-linejoin: miter; stroke-miterlimit: 4; fill: #000000; fill-rule: ; opacity: 1;">y</tspan><tspan x="-21.15" y="8.98" style="stroke: none; stroke-width: 0; stroke-dasharray: none; stroke-linecap: butt; stroke-linejoin: miter; stroke-miterlimit: 4; fill: #000000; fill-rule: ; opacity: 1;">k</tspan><tspan x="6" y="8.98" style="stroke: none; stroke-width: 0; stroke-dasharray: none; stroke-linecap: butt; stroke-linejoin: miter; stroke-miterlimit: 4; fill: #000000; fill-rule: ; opacity: 1;">a</tspan><tspan x="33.79" y="8.98" style="stroke: none; stroke-width: 0; stroke-dasharray: none; stroke-linecap: butt; stroke-linejoin: miter; stroke-miterlimit: 4; fill: #000000; fill-rule: ; opacity: 1;">r</tspan><tspan x="59.41" y="8.98" style="stroke: none; stroke-width: 0; stroke-dasharray: none; stroke-linecap: butt; stroke-linejoin: miter; stroke-miterlimit: 4; fill: #000000; fill-rule: ; opacity: 1;">t</tspan></text>
 </g>
  <g transform="translate(169.21 137.27) scale(0.6 0.6)">
   <text font-family="ADAMCG PRO" font-size="40" font-weight="normal" style="stroke: none; stroke-width: 1; stroke-dasharray: none; stroke-linecap: butt; stroke-linejoin: miter; stroke-miterlimit: 10; fill: #000000; fill-rule: nonzero; opacity: 1;" ><tspan x="0" y="8.98" fill="#000000"></tspan></text>
 </g>
  <g transform="translate(310.12 116.83) scale(0.39 0.4)">
   <text font-family="ADAMCG PRO" font-size="40" font-weight="normal" style="stroke: none; stroke-width: 1; stroke-dasharray: none; stroke-linecap: butt; stroke-linejoin: miter; stroke-miterlimit: 10; fill: #000000; fill-rule: nonzero; opacity: 1;" ><tspan x="-385.26" y="8.98" style="stroke: none; stroke-width: 0; stroke-dasharray: none; stroke-linecap: butt; stroke-linejoin: miter; stroke-miterlimit: 4; fill: #000000; fill-rule: ; opacity: 1;">s</tspan><tspan x="-364.15" y="8.98" style="stroke: none; stroke-width: 0; stroke-dasharray: none; stroke-linecap: butt; stroke-linejoin: miter; stroke-miterlimit: 4; fill: #000000; fill-rule: ; opacity: 1;">h</tspan><tspan x="-336.85" y="8.98" style="stroke: none; stroke-width: 0; stroke-dasharray: none; stroke-linecap: butt; stroke-linejoin: miter; stroke-miterlimit: 4; fill: #000000; fill-rule: ; opacity: 1;">o</tspan><tspan x="-302.9" y="8.98" style="stroke: none; stroke-width: 0; stroke-dasharray: none; stroke-linecap: butt; stroke-linejoin: miter; stroke-miterlimit: 4; fill: #000000; fill-rule: ; opacity: 1;">p</tspan><tspan x="-280.48" y="8.98" style="stroke: none; stroke-width: 0; stroke-dasharray: none; stroke-linecap: butt; stroke-linejoin: miter; stroke-miterlimit: 4; fill: #000000; fill-rule: ; opacity: 1;"> </tspan><tspan x="-268.49" y="8.98" style="stroke: none; stroke-width: 0; stroke-dasharray: none; stroke-linecap: butt; stroke-linejoin: miter; stroke-miterlimit: 4; fill: #000000; fill-rule: ; opacity: 1;">a</tspan><tspan x="-240.69" y="8.98" style="stroke: none; stroke-width: 0; stroke-dasharray: none; stroke-linecap: butt; stroke-linejoin: miter; stroke-miterlimit: 4; fill: #000000; fill-rule: ; opacity: 1;">n</tspan><tspan x="-211.18" y="8.98" style="stroke: none; stroke-width: 0; stroke-dasharray: none; stroke-linecap: butt; stroke-linejoin: miter; stroke-miterlimit: 4; fill: #000000; fill-rule: ; opacity: 1;">y</tspan><tspan x="-183.66" y="8.98" style="stroke: none; stroke-width: 0; stroke-dasharray: none; stroke-linecap: butt; stroke-linejoin: miter; stroke-miterlimit: 4; fill: #000000; fill-rule: ; opacity: 1;">t</tspan><tspan x="-160.3" y="8.98" style="stroke: none; stroke-width: 0; stroke-dasharray: none; stroke-linecap: butt; stroke-linejoin: miter; stroke-miterlimit: 4; fill: #000000; fill-rule: ; opacity: 1;">i</tspan><tspan x="-149.52" y="8.98" style="stroke: none; stroke-width: 0; stroke-dasharray: none; stroke-linecap: butt; stroke-linejoin: miter; stroke-miterlimit: 4; fill: #000000; fill-rule: ; opacity: 1;">m</tspan><tspan x="-115.42" y="8.98" style="stroke: none; stroke-width: 0; stroke-dasharray: none; stroke-linecap: butt; stroke-linejoin: miter; stroke-miterlimit: 4; fill: #000000; fill-rule: ; opacity: 1;">e</tspan><tspan x="-92.16" y="8.98" style="stroke: none; stroke-width: 0; stroke-dasharray: none; stroke-linecap: butt; stroke-linejoin: miter; stroke-miterlimit: 4; fill: #000000; fill-rule: ; opacity: 1;">,</tspan><tspan x="-82.08" y="8.98" style="stroke: none; stroke-width: 0; stroke-dasharray: none; stroke-linecap: butt; stroke-linejoin: miter; stroke-miterlimit: 4; fill: #000000; fill-rule: ; opacity: 1;"> </tspan><tspan x="-70.09" y="8.98" style="stroke: none; stroke-width: 0; stroke-dasharray: none; stroke-linecap: butt; stroke-linejoin: miter; stroke-miterlimit: 4; fill: #000000; fill-rule: ; opacity: 1;">a</tspan><tspan x="-42.29" y="8.98" style="stroke: none; stroke-width: 0; stroke-dasharray: none; stroke-linecap: butt; stroke-linejoin: miter; stroke-miterlimit: 4; fill: #000000; fill-rule: ; opacity: 1;">n</tspan><tspan x="-12.78" y="8.98" style="stroke: none; stroke-width: 0; stroke-dasharray: none; stroke-linecap: butt; stroke-linejoin: miter; stroke-miterlimit: 4; fill: #000000; fill-rule: ; opacity: 1;">y</tspan><tspan x="14.74" y="8.98" style="stroke: none; stroke-width: 0; stroke-dasharray: none; stroke-linecap: butt; stroke-linejoin: miter; stroke-miterlimit: 4; fill: #000000; fill-rule: ; opacity: 1;">t</tspan><tspan x="38.1" y="8.98" style="stroke: none; stroke-width: 0; stroke-dasharray: none; stroke-linecap: butt; stroke-linejoin: miter; stroke-miterlimit: 4; fill: #000000; fill-rule: ; opacity: 1;">h</tspan><tspan x="65.4" y="8.98" style="stroke: none; stroke-width: 0; stroke-dasharray: none; stroke-linecap: butt; stroke-linejoin: miter; stroke-miterlimit: 4; fill: #000000; fill-rule: ; opacity: 1;">i</tspan><tspan x="76.18" y="8.98" style="stroke: none; stroke-width: 0; stroke-dasharray: none; stroke-linecap: butt; stroke-linejoin: miter; stroke-miterlimit: 4; fill: #000000; fill-rule: ; opacity: 1;">n</tspan><tspan x="105.69" y="8.98" style="stroke: none; stroke-width: 0; stroke-dasharray: none; stroke-linecap: butt; stroke-linejoin: miter; stroke-miterlimit: 4; fill: #000000; fill-rule: ; opacity: 1;">g</tspan><tspan x="134.09" y="8.98" style="stroke: none; stroke-width: 0; stroke-dasharray: none; stroke-linecap: butt; stroke-linejoin: miter; stroke-miterlimit: 4; fill: #000000; fill-rule: ; opacity: 1;">,</tspan><tspan x="144.17" y="8.98" style="stroke: none; stroke-width: 0; stroke-dasharray: none; stroke-linecap: butt; stroke-linejoin: miter; stroke-miterlimit: 4; fill: #000000; fill-rule: ; opacity: 1;"> </tspan><tspan x="156.16" y="8.98" style="stroke: none; stroke-width: 0; stroke-dasharray: none; stroke-linecap: butt; stroke-linejoin: miter; stroke-miterlimit: 4; fill: #000000; fill-rule: ; opacity: 1;">a</tspan><tspan x="183.96" y="8.98" style="stroke: none; stroke-width: 0; stroke-dasharray: none; stroke-linecap: butt; stroke-linejoin: miter; stroke-miterlimit: 4; fill: #000000; fill-rule: ; opacity: 1;">n</tspan><tspan x="213.47" y="8.98" style="stroke: none; stroke-width: 0; stroke-dasharray: none; stroke-linecap: butt; stroke-linejoin: miter; stroke-miterlimit: 4; fill: #000000; fill-rule: ; opacity: 1;">y</tspan><tspan x="240.99" y="8.98" style="stroke: none; stroke-width: 0; stroke-dasharray: none; stroke-linecap: butt; stroke-linejoin: miter; stroke-miterlimit: 4; fill: #000000; fill-rule: ; opacity: 1;">w</tspan><tspan x="285.81" y="8.98" style="stroke: none; stroke-width: 0; stroke-dasharray: none; stroke-linecap: butt; stroke-linejoin: miter; stroke-miterlimit: 4; fill: #000000; fill-rule: ; opacity: 1;">h</tspan><tspan x="313.12" y="8.98" style="stroke: none; stroke-width: 0; stroke-dasharray: none; stroke-linecap: butt; stroke-linejoin: miter; stroke-miterlimit: 4; fill: #000000; fill-rule: ; opacity: 1;">e</tspan><tspan x="336.38" y="8.98" style="stroke: none; stroke-width: 0; stroke-dasharray: none; stroke-linecap: butt; stroke-linejoin: miter; stroke-miterlimit: 4; fill: #000000; fill-rule: ; opacity: 1;">r</tspan><tspan x="362" y="8.98" style="stroke: none; stroke-width: 0; stroke-dasharray: none; stroke-linecap: butt; stroke-linejoin: miter; stroke-miterlimit: 4; fill: #000000; fill-rule: ; opacity: 1;">e</tspan></text>
 </g>
</svg>